<?xml version="1.0" encoding="UTF-8"?>
<svg xmlns="http://www.w3.org/2000/svg" version="1.1" viewBox="0 0 512 512">
  <defs>
    <style>
      .cls-1, .cls-2 {
        fill: #ef4051;
      }

      .cls-3 {
        fill: #fff;
        stroke: #fff;
        stroke-width: 7.4px;
      }

      .cls-3, .cls-2 {
        stroke-miterlimit: 10;
      }

      .cls-2 {
        stroke: #231f20;
      }
    </style>
  </defs>
  <!-- Generator: Adobe Illustrator 28.7.1, SVG Export Plug-In . SVG Version: 1.2.0 Build 142)  -->
  <g>
    <g id="Layer_1">
      <path class="cls-1" d="M298.6,423.3h151.2c38.8-44.9,62.3-103.4,62.3-167.3h0C512,114.6,397.4,0,256,0h0C114.6,0,0,114.6,0,256h0c0,90.7,47.2,170.4,118.3,215.8v-48.6c0-23.4,8.8-45.9,24.3-62.5,15.5-16.6,36.6-25.9,58.5-25.9h28.4c-22.2-16.1-36.8-41.6-40.2-70-3.3-28.4,4.9-57,22.6-78.4,17.7-21.5,43.3-33.8,70.1-33.8s52.4,12.3,70.1,33.8c17.7,21.5,26,50,22.6,78.4-3.3,28.4-18,53.9-40.2,70h28.3c18.9,0,37.2,7,51.9,19.5,14.8,12.6,25.1,30.1,29.3,49.8.5,2.3,0,4.7-1.1,6.7-1.2,2-3.1,3.4-5.2,3.9-4.5,1-8.9-2-9.9-6.8-6.9-32.4-33.8-55.6-65-55.8h-161.9c-36.8,0-66.6,31.9-66.6,71.1v58.2c36.1,19.5,77.5,30.6,121.4,30.6h0c4.2,0,8.4-.1,12.5-.3l22-82.1c1-3.8,4.4-6.4,8.1-6.2Z"/>
      <path class="cls-1" d="M286.3,510.2c56.8-6.7,107.9-31.9,147-69.5h-128.2l-18.8,69.5Z"/>
      <path class="cls-2" d="M281.8,334.8h.6c20.5,0,40.1-8.8,54.5-24.3,14.4-15.5,22.5-36.5,22.5-58.3,0-21.8-8.2-42.8-22.7-58.2-14.5-15.4-34.1-24.1-54.6-24-20.5,0-40.1,8.7-54.5,24.2-14.5,15.4-22.6,36.4-22.6,58.2,0,21.8,8.1,42.7,22.5,58.1,14.4,15.4,33.9,24.2,54.3,24.3Z"/>
      <path class="cls-3" d="M201.1,352.1h161.9c31.2.2,58.1,23.4,65,55.8,1,4.8,5.4,7.8,9.9,6.8,2.2-.5,4-1.9,5.2-3.9,1.2-2,1.6-4.4,1.1-6.7-4.2-19.6-14.5-37.2-29.3-49.8-14.7-12.6-33-19.5-51.9-19.5h-28.3c22.2-16.1,36.8-41.6,40.2-70,3.3-28.4-4.9-57-22.6-78.4-17.7-21.5-43.3-33.8-70.1-33.8s-52.4,12.3-70.1,33.8c-17.7,21.5-26,50-22.6,78.4,3.3,28.4,18,53.9,40.2,70h-28.4c-21.9,0-43,9.4-58.5,25.9-15.5,16.6-24.3,39-24.3,62.5v48.6c5.3,3.4,10.7,6.6,16.2,9.6v-58.2c0-39.3,29.8-71.1,66.6-71.1ZM227.4,310.5c-14.4-15.4-22.5-36.3-22.5-58.1h0s0,0,0,0h0s0,0,0,0c0-21.8,8.1-42.8,22.6-58.2,14.5-15.5,34.1-24.2,54.5-24.2,20.5,0,40.1,8.6,54.6,24,14.5,15.4,22.7,36.4,22.7,58.2,0,21.8-8,42.8-22.5,58.3-14.4,15.5-34,24.2-54.5,24.3h-.6c-20.4-.1-39.9-8.9-54.3-24.3Z"/>
    </g>
  </g>
</svg>