<?xml version="1.0" encoding="UTF-8"?>
<svg id="Layer_2" xmlns="http://www.w3.org/2000/svg" viewBox="0 0 52 45.04">
  <defs>
    <style>
      .cls-1 {
        fill: #fff;
        stroke: #fff;
        stroke-miterlimit: 10;
        stroke-width: .8px;
      }

      .cls-2 {
        fill: #ef4051;
      }
    </style>
  </defs>
  <g id="Layer_1-2" data-name="Layer_1">
    <path class="cls-2" d="M8.71,28.3c1.68-1.79,3.95-2.8,6.32-2.8h3.07c-2.39-1.74-3.97-4.49-4.34-7.56-.36-3.07.53-6.15,2.44-8.47,1.92-2.32,4.67-3.65,7.57-3.65s5.65,1.33,7.57,3.65c1.92,2.32,2.81,5.41,2.44,8.47-.36,3.07-1.94,5.82-4.34,7.56h3.06c2.04,0,4.02.75,5.61,2.11,1.59,1.36,2.71,3.25,3.16,5.38.05.25,0,.51-.12.72-.13.21-.33.36-.57.42-.48.11-.96-.22-1.07-.73-.74-3.5-3.65-6-7.02-6.03H15.03c-3.97,0-7.19,3.44-7.19,7.68v8.84c1.29.48,2.68.75,4.13.75h10.33l2.38-8.9c.11-.41.47-.69.88-.67h22.26c.28-.01.55.12.72.36.17.24.23.55.16.83l-1.63,6.09c2.99-2.18,4.94-5.69,4.94-9.68V11.97c0-6.61-5.36-11.97-11.97-11.97H11.97C5.36,0,0,5.36,0,11.97v20.69c0,4.47,2.45,8.36,6.08,10.42v-8.03c0-2.53.95-4.96,2.62-6.75Z"/>
    <path class="cls-2" d="M23.81,25.49c2.21,0,4.33-.95,5.89-2.62,1.56-1.67,2.43-3.94,2.43-6.3,0-2.36-.89-4.62-2.45-6.28-1.57-1.67-3.69-2.6-5.9-2.6-2.21,0-4.33.94-5.89,2.61-1.56,1.67-2.44,3.93-2.44,6.29,0,2.35.87,4.61,2.43,6.27,1.55,1.67,3.66,2.61,5.87,2.63h.07Z"/>
    <path class="cls-2" d="M26.25,36.93l-2.08,7.7h15.86c1.74,0,3.38-.38,4.87-1.04l1.78-6.66h-20.43Z"/>
    <path class="cls-1" d="M7.84,35.05c0-4.24,3.22-7.68,7.19-7.68h17.49c3.37.03,6.27,2.52,7.02,6.03.1.52.58.84,1.07.73.23-.05.44-.2.57-.42.13-.21.17-.47.12-.72-.45-2.12-1.57-4.02-3.16-5.38-1.59-1.36-3.57-2.1-5.61-2.11h-3.06c2.39-1.74,3.97-4.49,4.34-7.56.36-3.07-.53-6.15-2.44-8.47-1.92-2.32-4.67-3.65-7.57-3.65s-5.65,1.33-7.57,3.65c-1.92,2.32-2.81,5.4-2.44,8.47.36,3.07,1.94,5.82,4.34,7.56h-3.07c-2.37,0-4.64,1.01-6.32,2.8-1.67,1.79-2.62,4.22-2.62,6.75v8.03c.56.32,1.15.58,1.75.81v-8.84ZM17.87,22.87c-1.55-1.67-2.43-3.92-2.43-6.27h0s0,0,0,0h0c0-2.36.88-4.62,2.44-6.29,1.56-1.67,3.68-2.61,5.89-2.61,2.21,0,4.33.93,5.9,2.6,1.57,1.67,2.45,3.93,2.45,6.28,0,2.36-.87,4.62-2.43,6.3-1.56,1.67-3.68,2.62-5.89,2.62h-.07c-2.2-.01-4.31-.96-5.87-2.63Z"/>
    <path class="cls-1" d="M48.53,35.41c-.17-.23-.44-.37-.72-.36h-22.26c-.4-.02-.77.26-.88.67l-2.38,8.9h1.88l2.08-7.7h20.43l-1.78,6.66c.77-.34,1.48-.76,2.15-1.25l1.63-6.09c.08-.29.02-.6-.16-.83Z"/>
  </g>
</svg>