<?xml version="1.0" encoding="UTF-8"?>
<svg id="Layer_2" xmlns="http://www.w3.org/2000/svg" viewBox="0 0 234.66 47.02">
  <defs>
    <style>
      .cls-1 {
        fill: #231f20;
        font-family: Satoshi-Bold, Satoshi;
        font-size: 42.38px;
        font-weight: 700;
      }

      .cls-2 {
        fill: #ef4051;
      }

      .cls-3 {
        letter-spacing: -.01em;
      }

      .cls-4 {
        letter-spacing: 0em;
      }

      .cls-5 {
        letter-spacing: .01em;
      }
    </style>
  </defs>
  <g id="Layer_1-2" data-name="Layer_1">
    <text class="cls-1" transform="translate(65.82 36.68)"><tspan class="cls-4" x="0" y="0">a</tspan><tspan class="cls-3" x="22.88" y="0">vow</tspan><tspan class="cls-5" x="103.11" y="0">ork</tspan></text>
    <g>
      <path class="cls-2" d="M22.59,45.83h17.44c1.08,0,2.12-.16,3.12-.43l1.95-7.28h-20.43l-2.08,7.7Z"/>
      <path class="cls-2" d="M30.54,17.77c0-2.36-.89-4.62-2.45-6.28-1.57-1.67-3.69-2.6-5.9-2.6-2.21,0-4.33.94-5.89,2.61-1.56,1.67-2.44,3.93-2.44,6.29,0,2.35.87,4.61,2.43,6.27,1.55,1.67,3.66,2.61,5.87,2.63h.07c2.21,0,4.33-.95,5.89-2.62,1.56-1.67,2.43-3.94,2.43-6.3Z"/>
      <path class="cls-2" d="M4.5,36.24c0-2.53.95-4.96,2.62-6.75,1.68-1.79,3.95-2.8,6.32-2.8h3.07c-2.39-1.74-3.97-4.49-4.34-7.56-.36-3.07.53-6.15,2.44-8.47,1.92-2.32,4.67-3.65,7.57-3.65s5.65,1.33,7.57,3.65c1.92,2.32,2.81,5.41,2.44,8.47-.36,3.07-1.94,5.82-4.34,7.56h3.06c2.04,0,4.02.75,5.61,2.11,1.59,1.36,2.71,3.25,3.16,5.38.05.25,0,.51-.12.72-.13.21-.33.36-.57.42-.48.11-.96-.22-1.07-.73-.74-3.5-3.65-6-7.02-6.03H13.44c-3.97,0-7.19,3.44-7.19,7.68v8.13c1.7.93,3.65,1.45,5.72,1.45h8.74l2.38-8.9c.11-.41.47-.69.88-.67h22.26c.28-.01.55.12.72.36.17.24.23.55.16.83l-1.93,7.22c4.03-1.92,6.83-6.03,6.83-10.8V13.16c0-6.61-5.36-11.97-11.97-11.97H11.97C5.36,1.19,0,6.55,0,13.16v20.69c0,3.78,1.76,7.15,4.5,9.34v-6.96Z"/>
    </g>
  </g>
</svg>