<svg width="1726" height="488" viewBox="0 0 1726 488" fill="none" xmlns="http://www.w3.org/2000/svg">
<g style="mix-blend-mode:plus-lighter">
<mask id="mask0_19_374" style="mask-type:alpha" maskUnits="userSpaceOnUse" x="-414" y="-577" width="2143" height="1646">
<g clip-path="url(#clip0_19_374)">
<path d="M722.747 18.7638C722.747 166.024 515.071 297.542 394.966 297.542C274.86 297.542 -475.546 -218.955 -475.546 -366.215C-475.546 -513.475 602.642 -310.745 722.747 -310.745C842.853 -310.745 722.747 -128.496 722.747 18.7638Z" fill="url(#paint0_linear_19_374)"/>
<path d="M759.844 797.945C759.844 945.205 662.479 1064.58 542.373 1064.58C422.268 1064.58 -246.824 1030.26 -246.824 882.997C-246.824 735.738 -244.617 349.416 -124.511 349.416C192.746 518.749 449.783 270.609 659.873 364.986C838.247 445.116 722.876 689.406 759.844 797.945Z" fill="url(#paint1_radial_19_374)"/>
<path d="M1054.54 103.324C1378.6 396.012 1228.91 248.924 1507.25 241.514C1550.92 249.925 1625.04 250.325 1572.23 184.634C1506.21 102.519 1527.49 44.5213 1444.99 -44.9427C1362.48 -134.407 1312.24 -225.301 1187.68 -367.591C1063.13 -509.881 1053.55 -392.587 913.127 -403.706C772.706 -414.825 836.752 -397.168 643.008 -190.711C449.264 15.7465 730.473 -189.365 1054.54 103.324Z" fill="#D9D9D9"/>
<path d="M748.593 563.706C314.913 614.764 524.189 599.005 346.43 813.324C311.341 840.639 262.216 896.151 346.43 899.681C451.698 904.094 481.325 958.304 602.982 955.152C724.639 952 826.126 974.063 1015.23 974.063C1204.33 974.063 1122.39 889.596 1223.25 791.261C1324.1 692.927 1268.63 729.488 1240.9 447.722C1213.16 165.956 1182.27 512.648 748.593 563.706Z" fill="#D9D9D9"/>
</g>
</mask>
<g mask="url(#mask0_19_374)">
<line x1="-67.0771" y1="408.64" x2="1444.5" y2="408.64" stroke="#353336" stroke-width="1.2607"/>
<line x1="-67.0771" y1="85.9018" x2="1444.5" y2="85.9018" stroke="#353336" stroke-width="1.2607"/>
<line x1="-67.0771" y1="247.27" x2="1444.5" y2="247.27" stroke="#353336" stroke-width="1.2607"/>
<line x1="-67.0771" y1="327.955" x2="1444.5" y2="327.955" stroke="#353336" stroke-width="1.2607"/>
<line x1="-67.0771" y1="5.2167" x2="1444.5" y2="5.2167" stroke="#353336" stroke-width="1.2607"/>
<line x1="-67.0771" y1="166.585" x2="1444.5" y2="166.585" stroke="#353336" stroke-width="1.2607"/>
<line x1="625.679" y1="-265.203" x2="625.679" y2="902.203" stroke="#353336" stroke-width="1.2607"/>
<line x1="302.939" y1="-265.203" x2="302.938" y2="902.203" stroke="#353336" stroke-width="1.2607"/>
<line x1="948.415" y1="-265.203" x2="948.415" y2="902.203" stroke="#353336" stroke-width="1.2607"/>
<line x1="1271.16" y1="-265.203" x2="1271.16" y2="902.203" stroke="#353336" stroke-width="1.2607"/>
<line x1="141.568" y1="-265.203" x2="141.568" y2="902.203" stroke="#353336" stroke-width="1.2607"/>
<line x1="787.045" y1="-265.203" x2="787.045" y2="902.203" stroke="#353336" stroke-width="1.2607"/>
<line x1="464.309" y1="-265.203" x2="464.309" y2="902.203" stroke="#353336" stroke-width="1.2607"/>
<line x1="1109.79" y1="-265.203" x2="1109.79" y2="902.203" stroke="#353336" stroke-width="1.2607"/>
<line x1="1432.53" y1="-265.203" x2="1432.53" y2="902.203" stroke="#353336" stroke-width="1.2607"/>
<line x1="60.8854" y1="-265.203" x2="60.8854" y2="902.203" stroke="#353336" stroke-width="1.2607"/>
<line x1="706.362" y1="-265.203" x2="706.362" y2="902.203" stroke="#353336" stroke-width="1.2607"/>
<line x1="383.621" y1="-265.203" x2="383.621" y2="902.203" stroke="#353336" stroke-width="1.2607"/>
<line x1="1029.1" y1="-265.203" x2="1029.1" y2="902.203" stroke="#353336" stroke-width="1.2607"/>
<line x1="1351.84" y1="-265.203" x2="1351.84" y2="902.203" stroke="#353336" stroke-width="1.2607"/>
<line x1="222.256" y1="-265.203" x2="222.256" y2="902.203" stroke="#353336" stroke-width="1.2607"/>
<line x1="867.732" y1="-265.203" x2="867.732" y2="902.203" stroke="#353336" stroke-width="1.2607"/>
<line x1="544.992" y1="-265.203" x2="544.992" y2="902.203" stroke="#353336" stroke-width="1.2607"/>
<line x1="1190.47" y1="-265.203" x2="1190.47" y2="902.203" stroke="#353336" stroke-width="1.2607"/>
<line x1="1513.21" y1="-265.203" x2="1513.21" y2="902.203" stroke="#353336" stroke-width="1.2607"/>
</g>
</g>
<defs>
<linearGradient id="paint0_linear_19_374" x1="43.8614" y1="-292.464" x2="498.343" y2="-50.4104" gradientUnits="userSpaceOnUse">
<stop stop-color="white"/>
<stop offset="1" stop-color="white" stop-opacity="0"/>
</linearGradient>
<radialGradient id="paint1_radial_19_374" cx="0" cy="0" r="1" gradientUnits="userSpaceOnUse" gradientTransform="translate(72.1329 804.204) rotate(-29.3932) scale(777.019 1335.47)">
<stop stop-color="white"/>
<stop offset="1" stop-color="white" stop-opacity="0"/>
</radialGradient>
<clipPath id="clip0_19_374">
<rect width="2143" height="1646" fill="white" transform="translate(-414 -577)"/>
</clipPath>
</defs>
</svg>
