<?xml version="1.0" encoding="UTF-8"?>
<svg id="Layer_2" xmlns="http://www.w3.org/2000/svg" viewBox="0 0 246.06 53.26">
  <defs>
    <style>
      .cls-1 {
        fill: #fff;
      }

      .cls-2 {
        fill: #ef4051;
      }

      .cls-3 {
        letter-spacing: -.03em;
      }

      .cls-4 {
        letter-spacing: -.01em;
      }

      .cls-5 {
        fill: #231f20;
        font-family: Satoshi-Bold, Satoshi;
        font-size: 48px;
        font-weight: 700;
      }

      .cls-6 {
        letter-spacing: 0em;
      }

      .cls-7 {
        letter-spacing: .01em;
      }

      .cls-8 {
        letter-spacing: 0em;
      }
    </style>
  </defs>
  <g id="Layer_1-2" data-name="Layer_1">
    <g>
      <g>
        <rect class="cls-2" y="4.31" width="52" height="44.64" rx="11.97" ry="11.97"/>
        <path class="cls-1" d="M45.27,40.76c0,.34-.14.67-.38.91-.24.24-.57.38-.91.38H8.01c-.46,0-.88-.24-1.11-.64-.23-.4-.23-.89,0-1.28s.65-.64,1.11-.64h35.98c.34,0,.67.14.91.38.24.24.38.57.38.91ZM9.3,36.91c.34,0,.67-.14.91-.38.24-.24.38-.57.38-.91,0-4.09,1.62-8.01,4.52-10.9,2.89-2.89,6.81-4.52,10.9-4.52s8.01,1.62,10.9,4.52c2.89,2.89,4.52,6.81,4.52,10.9,0,.46.24.88.64,1.11.4.23.89.23,1.28,0s.64-.65.64-1.11c0-4.54-1.73-8.92-4.83-12.24-3.1-3.32-7.34-5.35-11.87-5.68v-3.92h2.57c.46,0,.88-.24,1.11-.64.23-.4.23-.89,0-1.28s-.65-.64-1.11-.64h-7.71c-.46,0-.88.24-1.11.64-.23.4-.23.89,0,1.28s.65.64,1.11.64h2.57v3.92c-4.53.33-8.77,2.36-11.87,5.68-3.1,3.32-4.82,7.7-4.83,12.24,0,.34.14.67.38.91.24.24.57.38.91.38h0Z"/>
      </g>
      <text class="cls-5" transform="translate(62.89 41.54)"><tspan class="cls-3" x="0" y="0">A</tspan><tspan class="cls-4" x="31.49" y="0">v</tspan><tspan class="cls-7" x="56.64" y="0">oS</tspan><tspan class="cls-8" x="114.82" y="0">t</tspan><tspan class="cls-6" x="131.57" y="0">a</tspan><tspan class="cls-7" x="157.78" y="0">y</tspan></text>
    </g>
  </g>
</svg>