<?xml version="1.0" encoding="UTF-8"?>
<svg id="Layer_2" xmlns="http://www.w3.org/2000/svg" viewBox="0 0 215.16 45.66">
  <defs>
    <style>
      .cls-1 {
        fill: #231f20;
      }

      .cls-2 {
        fill: #fff;
      }

      .cls-3 {
        fill: #ef4051;
      }
    </style>
  </defs>
  <g id="Layer_1-2" data-name="Layer_1">
    <g>
      <rect class="cls-3" width="52" height="44.64" rx="11.97" ry="11.97"/>
      <path class="cls-2" d="M45.27,36.45c0,.34-.14.67-.38.91-.24.24-.57.38-.91.38H8.01c-.46,0-.88-.24-1.11-.64-.23-.4-.23-.89,0-1.28s.65-.64,1.11-.64h35.98c.34,0,.67.14.91.38.24.24.38.57.38.91ZM9.3,32.6c.34,0,.67-.14.91-.38.24-.24.38-.57.38-.91,0-4.09,1.62-8.01,4.52-10.9,2.89-2.89,6.81-4.52,10.9-4.52s8.01,1.62,10.9,4.52c2.89,2.89,4.52,6.81,4.52,10.9,0,.46.24.88.64,1.11.4.23.89.23,1.28,0s.64-.65.64-1.11c0-4.54-1.73-8.92-4.83-12.24-3.1-3.32-7.34-5.35-11.87-5.68v-3.92h2.57c.46,0,.88-.24,1.11-.64.23-.4.23-.89,0-1.28s-.65-.64-1.11-.64h-7.71c-.46,0-.88.24-1.11.64-.23.4-.23.89,0,1.28s.65.64,1.11.64h2.57v3.92c-4.53.33-8.77,2.36-11.87,5.68-3.1,3.32-4.82,7.7-4.83,12.24,0,.34.14.67.38.91.24.24.57.38.91.38h0Z"/>
    </g>
    <g>
      <path class="cls-1" d="M65.82,29.51c0-3.86,2.8-6.27,7.75-6.65l6.27-.47v-.47c0-2.84-1.69-3.98-4.32-3.98-3.05,0-4.75,1.27-4.75,3.47h-4.41c0-4.53,3.73-7.5,9.41-7.5s9.11,3.05,9.11,8.86v12.71h-4.53l-.38-3.09c-.89,2.16-3.73,3.64-6.99,3.64-4.45,0-7.16-2.58-7.16-6.53ZM79.88,27.01v-1.1l-4.37.34c-3.22.3-4.45,1.36-4.45,3.05,0,1.91,1.27,2.84,3.6,2.84,3.18,0,5.21-1.91,5.21-5.13Z"/>
      <path class="cls-1" d="M87.26,14.55h5.51l3.64,9.62c.89,2.5,1.61,4.66,1.86,5.8.3-1.31,1.06-3.52,1.95-5.8l3.81-9.62h5.34l-8.73,20.93h-5.08l-8.3-20.93Z"/>
      <path class="cls-1" d="M121.8,13.96c6.48,0,11.19,4.49,11.19,11.02s-4.7,11.02-11.19,11.02-11.19-4.49-11.19-11.02,4.7-11.02,11.19-11.02ZM121.8,31.38c3.56,0,6.02-2.58,6.02-6.4s-2.46-6.4-6.02-6.4-6.02,2.58-6.02,6.4,2.46,6.4,6.02,6.4Z"/>
      <path class="cls-1" d="M140.91,29.13c.04,1.82,1.4,2.97,3.77,2.97s3.73-.97,3.73-2.5c0-1.06-.55-1.82-2.42-2.25l-3.77-.89c-3.77-.85-5.59-2.63-5.59-5.97,0-4.11,3.47-6.57,8.3-6.57s7.88,2.71,7.92,6.78h-4.92c-.04-1.78-1.23-2.92-3.22-2.92s-3.22.93-3.22,2.5c0,1.19.93,1.95,2.71,2.37l3.77.89c3.52.8,5.3,2.42,5.3,5.64,0,4.24-3.6,6.86-8.77,6.86s-8.52-2.8-8.52-6.91h4.92Z"/>
      <path class="cls-1" d="M159.69,35.49v-16.61h-4.03v-4.32h4.03v-6.53h5.17v6.53h4.07v4.32h-4.07v16.61h-5.17Z"/>
      <path class="cls-1" d="M171.6,29.51c0-3.86,2.8-6.27,7.75-6.65l6.27-.47v-.47c0-2.84-1.69-3.98-4.32-3.98-3.05,0-4.75,1.27-4.75,3.47h-4.41c0-4.53,3.73-7.5,9.41-7.5s9.11,3.05,9.11,8.86v12.71h-4.53l-.38-3.09c-.89,2.16-3.73,3.64-6.99,3.64-4.45,0-7.16-2.58-7.16-6.53ZM185.66,27.01v-1.1l-4.37.34c-3.22.3-4.45,1.36-4.45,3.05,0,1.91,1.27,2.84,3.6,2.84,3.18,0,5.21-1.91,5.21-5.13Z"/>
      <path class="cls-1" d="M193.85,40.87h3.09c2.03,0,3.31-.47,4.2-2.92l.59-1.57-8.43-21.82h5.47l5.38,15.25,5.68-15.25h5.34l-10.25,25.59c-1.57,3.9-3.77,5.51-7.2,5.51-1.44,0-2.71-.17-3.86-.47v-4.32Z"/>
    </g>
  </g>
</svg>