<?xml version="1.0" encoding="UTF-8"?>
<svg width="1200pt" height="1200pt" version="1.1" viewBox="0 0 1200 1200" xmlns="http://www.w3.org/2000/svg">
 <path d="m313.14 1003.8c0 24.91 28.383 52.258 75.914 73.262v0.003906c67.055 26.707 138.79 39.688 210.95 38.172 72.16 1.5195 143.89-11.461 210.95-38.172 47.531-20.941 75.914-48.289 75.914-73.262 0-32.539-46.824-67.441-119.33-88.977v-0.003906c-8.875-2.9102-15.578-10.254-17.668-19.359-2.0898-9.1055 0.73828-18.641 7.457-25.129 6.7188-6.4922 16.344-8.9922 25.371-6.5938 100.04 29.723 157.43 80.766 157.43 140.06 0 48.074-38.262 91.391-107.73 121.98-73.82 29.652-152.84 44.168-232.38 42.684-79.551 1.4844-158.59-13.027-232.42-42.684-69.473-30.594-107.72-73.906-107.72-121.98 0-59.293 57.387-110.34 157.43-140.06h0.003906c9.125-2.707 19-0.33984 25.906 6.207 6.9102 6.5508 9.7969 16.285 7.582 25.543-2.2188 9.2539-9.207 16.625-18.332 19.332-72.492 21.473-119.33 56.438-119.33 88.977zm501.47-387.79c108.15-170.36 109.52-335.24 3.6641-441.12v0.003906c-57.934-57.797-136.43-90.254-218.26-90.254-81.832 0-160.32 32.457-218.26 90.254-105.85 105.88-104.49 270.76 3.6523 441.12l214.6 338.04 214.6-338.05zm41.344-478.74v0.003907c-68.008-67.637-160.02-105.6-255.94-105.6-95.914 0-187.93 37.965-255.94 105.6-32.43 32.188-57.582 70.957-73.754 113.69-16.168 42.734-22.984 88.445-19.984 134.04 3.9648 83.242 35.117 173.05 90.074 259.61l237.1 373.45c4.8828 7.7109 13.371 12.383 22.496 12.383s17.613-4.6719 22.496-12.383l237.12-373.5c54.949-86.602 86.098-176.36 90.074-259.61 2.9922-45.594-3.8281-91.301-20-134.04s-41.32-81.504-73.75-113.7zm-255.95 367.29c-29.539-0.003906-57.867-11.742-78.754-32.633-20.887-20.887-32.621-49.219-32.617-78.758 0-29.539 11.734-57.871 32.621-78.758 20.891-20.887 49.219-32.621 78.758-32.625 29.539 0 57.871 11.734 78.762 32.621 20.887 20.883 32.625 49.215 32.629 78.754-0.03125 29.535-11.777 57.852-32.66 78.734-20.887 20.887-49.203 32.633-78.738 32.664zm0-276.06v-0.003906c32.57 0 64.41 9.6602 91.492 27.754 27.082 18.098 48.188 43.816 60.652 73.91 12.465 30.09 15.723 63.203 9.3672 95.148s-22.039 61.285-45.07 84.316-52.375 38.715-84.32 45.066c-31.945 6.3516-65.059 3.0898-95.148-9.375-30.09-12.469-55.809-33.578-73.902-60.66s-27.75-58.922-27.75-91.492c0.058594-43.656 17.426-85.512 48.297-116.38 30.871-30.867 72.727-48.234 116.38-48.289z" fill-rule="evenodd"/>
</svg>
