<?xml version="1.0" encoding="UTF-8"?>
<svg version="1.1" viewBox="0 0 1200 1200" xmlns="http://www.w3.org/2000/svg">
 <path d="m600 144c-251.86 0-456 204.14-456 456 0 133.74 57.562 254.06 149.34 337.45 2.5781 2.3906 4.0312 5.7656 3.8906 9.2812-0.09375 3.5156-1.7812 6.8438-4.5469 9l-126.28 100.27h433.6c251.86 0 456-204.14 456-456s-204.14-456-456-456zm-480 456c0-265.08 214.92-480 480-480s480 214.92 480 480-214.92 480-480 480h-468c-5.1094 0-9.6562-3.2344-11.344-8.0625s-0.09375-10.172 3.8906-13.312l142.36-113.02c-90.562-87.281-146.9-209.9-146.9-345.61zm352.36-197.16c-9.7031-9.75-25.688-9-34.453 1.5938-60 72.469-55.031 178.69 11.484 245.21l100.97 100.97c66.516 66.516 172.74 71.484 245.21 11.484 10.594-8.7656 11.344-24.75 1.5938-34.453l-60.609-60.656c-12.562-12.562-33.844-8.9531-41.531 7.0781-14.906 30.938-55.875 37.922-80.156 13.641l-102.56-102.56c-24.234-24.281-17.297-65.25 13.641-80.156 16.031-7.6875 19.641-28.969 7.0781-41.531zm-52.922-13.734c17.812-21.469 50.203-22.969 69.891-3.2344l60.656 60.609c24.234 24.281 17.297 65.25-13.641 80.156-16.031 7.6875-19.641 28.969-7.0781 41.531l102.56 102.56c12.562 12.562 33.844 8.9531 41.531-7.0781 14.906-30.938 55.875-37.875 80.156-13.641l60.609 60.656c19.734 19.688 18.234 52.078-3.2344 69.891-81.984 67.922-202.22 62.297-277.5-12.984l-100.97-100.97c-75.281-75.281-80.906-195.52-12.984-277.5z" fill-rule="evenodd"/>
</svg>
